<?xml version="1.0" encoding="utf-8"?>
<!-- Generator: Adobe Illustrator 23.0.1, SVG Export Plug-In . SVG Version: 6.00 Build 0)  -->
<svg version="1.1" id="Layer_1" focusable="false" xmlns="http://www.w3.org/2000/svg" xmlns:xlink="http://www.w3.org/1999/xlink"
	 x="0px" y="0px" viewBox="0 0 512 512" style="enable-background:new 0 0 512 512;" xml:space="preserve">
<style type="text/css">
	.st0{fill:#FFFFFF;}
</style>
<path d="M448,0H64C28.7,0,0,28.7,0,64v288c0,35.3,28.7,64,64,64h96v84c0,9.8,11.2,15.5,19.1,9.7L304,416h144c35.3,0,64-28.7,64-64
	V64C512,28.7,483.3,0,448,0z"/>
<g>
	<path class="st0" d="M444.9,134.1H67.1c-3.3,0-6.1-3.8-6.1-8.5v-33c0-4.7,2.7-8.5,6.1-8.5h377.9c3.3,0,6.1,3.8,6.1,8.5v33
		C451,130.3,448.3,134.1,444.9,134.1z"/>
</g>
<g>
	<path class="st0" d="M444.9,233H67.1c-3.3,0-6.1-3.8-6.1-8.5v-33c0-4.7,2.7-8.5,6.1-8.5h377.9c3.3,0,6.1,3.8,6.1,8.5v33
		C451,229.2,448.3,233,444.9,233z"/>
</g>
<g>
	<path class="st0" d="M444.9,334.2H67.1c-3.3,0-6.1-3.8-6.1-8.5v-33c0-4.7,2.7-8.5,6.1-8.5h377.9c3.3,0,6.1,3.8,6.1,8.5v33
		C451,330.4,448.3,334.2,444.9,334.2z"/>
</g>
</svg>
