<?xml version="1.0" encoding="utf-8"?>
<!-- Generator: Adobe Illustrator 23.0.1, SVG Export Plug-In . SVG Version: 6.00 Build 0)  -->
<svg version="1.1" id="Layer_1" focusable="false" xmlns="http://www.w3.org/2000/svg" xmlns:xlink="http://www.w3.org/1999/xlink"
	 x="0px" y="0px" viewBox="0 0 640 512" style="enable-background:new 0 0 640 512;" xml:space="preserve">
<path fill="#fff" d="M0,224l0,32c0,8.8,7.2,16,16,16h64v64c0,8.8,7.2,16,16,16h32c8.8,0,16-7.2,16-16v-64h64c8.8,0,16-7.2,16-16v-32
	c0-8.8-7.2-16-16-16h-64v-64c0-8.8-7.2-16-16-16H96c-8.8,0-16,7.2-16,16v64H16C7.2,208,0,215.2,0,224z M544,128
	C544,57.3,486.7,0,416,0S288,57.3,288,128s57.3,128,128,128S544,198.7,544,128z M192,422.4V464c0,26.5,21.5,48,48,48h352
	c26.5,0,48-21.5,48-48v-41.6c0-74.2-60.2-134.4-134.4-134.4h-16.7c-22.3,10.2-46.9,16-72.9,16s-50.7-5.8-72.9-16h-16.7
	C252.2,288,192,348.2,192,422.4z"/>
</svg>
